<?xml version="1.0" standalone="no"?>
<!DOCTYPE svg PUBLIC "-//W3C//DTD SVG 20010904//EN"
 "http://www.w3.org/TR/2001/REC-SVG-20010904/DTD/svg10.dtd">
<svg version="1.0" xmlns="http://www.w3.org/2000/svg"
 width="1005.000000pt" height="746.000000pt" viewBox="0 0 1005.000000 746.000000"
 preserveAspectRatio="xMidYMid meet">

<g transform="translate(0.000000,746.000000) scale(0.100000,-0.100000)"
fill="#000000" stroke="none">
<path d="M5940 7433 c-24 -9 -50 -35 -50 -50 0 -19 23 -16 43 7 29 34 77 23
77 -18 0 -19 -17 -42 -60 -84 -83 -78 -80 -88 20 -88 47 0 80 4 80 10 0 6 -27
10 -60 10 -33 0 -60 3 -60 7 0 4 25 30 55 58 43 40 55 58 55 81 0 35 -8 47
-37 63 -23 12 -39 13 -63 4z"/>
<path d="M5964 7093 c-20 -92 -47 -133 -109 -162 l-45 -21 -1649 0 c-1072 0
-1667 -4 -1702 -10 -67 -13 -108 -41 -144 -98 -34 -54 -47 -142 -21 -142 11 0
16 9 16 30 0 41 25 99 58 133 57 60 -28 57 1778 57 l1653 0 57 21 c43 17 63
31 87 66 l32 44 20 -28 c34 -47 64 -71 112 -87 42 -14 224 -16 1697 -16 1075
0 1664 -4 1687 -10 81 -23 140 -89 154 -172 4 -24 12 -38 22 -38 9 0 13 7 10
18 -3 9 -8 33 -11 53 -9 51 -57 113 -113 146 l-48 28 -1695 5 -1695 5 -38 24
c-41 25 -71 75 -82 134 -9 47 -23 56 -31 20z"/>
<path d="M1485 6593 c-61 -6 -233 -42 -296 -63 -302 -99 -492 -275 -532 -495
l-13 -70 -56 -6 c-38 -4 -70 -16 -99 -35 -44 -30 -89 -86 -89 -110 0 -22 18
-16 25 7 12 36 72 87 123 103 38 12 98 15 317 13 l270 -2 3 -442 2 -443 -58 0
c-55 0 -64 -4 -148 -60 -49 -33 -132 -90 -185 -126 l-97 -65 -143 3 -144 3 -2
285 c-1 187 -6 286 -13 288 -7 3 -10 -149 -10 -482 l0 -486 164 0 163 0 6 57
c15 142 146 299 299 357 131 49 233 44 363 -19 78 -37 181 -129 191 -171 3
-13 10 -24 14 -24 11 0 40 -100 40 -138 0 -66 -28 -62 416 -62 l404 0 4 -22
c3 -13 7 -43 11 -66 12 -94 97 -202 194 -249 50 -25 67 -28 156 -28 84 0 107
4 147 23 113 56 195 169 206 284 l5 58 67 0 68 0 6 -54 c15 -117 96 -230 203
-282 52 -26 68 -29 158 -29 84 0 107 4 147 24 112 55 195 169 205 282 l6 59
49 0 49 0 -3 138 -3 137 -115 0 c-111 0 -117 1 -185 35 -63 32 -77 35 -155 35
-77 -1 -92 -4 -155 -36 -64 -32 -78 -35 -144 -33 -41 2 -79 8 -84 13 -15 15
-110 14 -125 -1 -6 -6 -33 -12 -59 -14 -38 -2 -65 5 -128 34 -73 34 -87 37
-165 36 -75 0 -93 -4 -150 -33 -57 -29 -76 -33 -160 -35 -53 -2 -101 1 -107 7
-7 5 -13 25 -13 43 l0 34 -260 0 c-224 0 -260 2 -260 15 0 11 12 15 49 15 39
0 56 6 80 26 l31 26 0 108 c0 87 3 109 15 114 13 5 15 45 15 280 0 234 -2 275
-15 280 -13 5 -15 42 -15 252 l0 246 -39 39 c-32 33 -45 39 -80 39 -22 0 -41
-4 -41 -10 0 -5 9 -10 20 -10 33 0 87 -31 99 -57 14 -31 15 -507 1 -498 -6 4
-10 94 -10 236 l0 231 -29 29 c-32 31 -81 40 -81 14 0 -8 9 -15 20 -15 11 0
29 -9 40 -20 19 -19 20 -33 20 -245 0 -191 -2 -227 -15 -231 -13 -5 -15 -46
-15 -280 0 -235 2 -275 15 -280 12 -5 15 -24 15 -88 0 -90 -8 -106 -52 -106
l-28 0 0 540 0 540 -30 0 -30 0 0 320 0 320 -112 -2 c-62 -1 -131 -3 -153 -5z
m235 -328 l0 -305 -522 2 -523 3 2 47 c8 152 142 316 345 422 170 89 358 133
576 135 l122 1 0 -305z m60 -856 l0 -529 -172 0 c-231 0 -260 9 -362 109 l-76
73 0 437 0 437 305 1 305 1 0 -529z m190 -54 l0 -245 -40 0 -40 0 0 238 c0
131 3 242 7 245 3 4 21 7 40 7 l33 0 0 -245z m-30 -387 c0 -123 -9 -138 -82
-138 -47 0 -63 12 -32 24 9 3 29 6 44 6 41 0 50 24 50 124 0 51 4 86 10 86 6
0 10 -41 10 -102z m-699 -8 c95 -95 92 -95 332 -98 l207 -3 0 -45 0 -44 -85 0
-85 0 0 -125 c0 -77 -4 -125 -10 -125 -5 0 -10 9 -10 21 0 80 -128 232 -241
286 -195 94 -393 62 -554 -88 -71 -67 -129 -168 -143 -249 l-8 -45 -139 0
-140 0 -3 163 -2 162 150 0 c88 0 156 4 163 10 7 6 86 62 177 125 l165 114 83
1 83 0 60 -60z m659 -235 c0 -12 14 -15 65 -15 36 0 65 -3 65 -6 0 -3 -11 -20
-24 -37 -22 -29 -66 -135 -66 -157 0 -6 9 -10 19 -10 15 0 22 12 31 50 6 27
27 75 46 106 19 31 34 63 34 70 0 11 24 14 114 14 l115 0 6 -44 c4 -24 5 -84
3 -133 l-4 -88 -326 -3 -325 -2 -6 67 c-3 38 -3 98 0 136 l6 67 123 0 c104 0
124 -2 124 -15z m593 -87 c-32 -34 -73 -117 -79 -160 -6 -36 -8 -38 -45 -38
l-39 0 0 103 c0 57 3 107 7 110 3 4 45 7 91 7 l85 0 -20 -22z m860 0 c-34 -38
-67 -100 -79 -148 l-11 -45 -70 -3 -71 -3 -7 38 c-7 40 -48 128 -65 138 -5 3
-15 15 -20 26 -10 18 -6 19 166 19 l177 0 -20 -22z m697 -88 l0 -110 -33 0
c-33 0 -34 2 -50 59 -9 32 -32 80 -52 105 -19 25 -35 48 -35 51 0 3 38 5 85 5
l85 0 0 -110z m-1227 16 c50 -18 76 -42 98 -91 71 -155 -85 -311 -238 -238
-81 38 -121 145 -85 224 43 97 132 138 225 105z m860 0 c138 -50 159 -238 35
-319 -38 -25 -51 -28 -104 -25 -74 5 -126 39 -155 102 -23 52 -24 90 0 141 43
93 133 133 224 101z"/>
<path d="M1324 6339 c-15 -17 -19 -36 -19 -96 0 -67 3 -77 24 -94 28 -23 78
-25 109 -3 16 11 22 25 22 54 0 56 -22 73 -83 67 -48 -4 -48 -4 -42 22 13 52
43 65 77 34 24 -22 49 -3 28 22 -19 23 -93 20 -116 -6z m99 -110 c14 -23 1
-67 -23 -74 -43 -14 -82 35 -60 75 14 25 67 25 83 -1z"/>
<path d="M1446 5273 c-15 -91 -6 -106 47 -82 48 22 90 -28 60 -70 -17 -25 -55
-27 -77 -6 -16 17 -46 20 -46 6 0 -20 54 -51 87 -51 44 0 83 37 83 79 0 41
-43 75 -87 68 -32 -6 -33 -4 -33 28 0 34 0 34 52 37 30 2 53 8 56 16 3 9 -15
12 -66 12 l-69 0 -7 -37z"/>
<path d="M463 4721 c-35 -22 -41 -35 -21 -47 7 -4 18 2 26 14 19 29 67 30 82
1 14 -26 0 -45 -41 -54 -33 -7 -30 -25 5 -25 23 0 56 -28 56 -47 0 -17 -35
-43 -57 -43 -12 0 -30 12 -41 28 -17 22 -23 25 -34 14 -21 -21 33 -62 82 -62
67 0 105 65 60 105 -17 16 -18 20 -5 38 20 28 19 50 -3 70 -30 27 -73 30 -109
8z"/>
<path d="M2280 5700 l0 -900 953 0 952 -1 113 -118 112 -119 0 -115 0 -116
-25 -3 c-52 -6 -23 -23 40 -23 63 0 92 17 40 23 l-25 3 0 112 0 113 73 36
c104 54 295 155 344 184 l42 24 2373 -2 2373 -3 3 -177 c2 -154 0 -178 -13
-178 -8 0 -15 -7 -15 -15 0 -10 10 -15 30 -15 l30 0 0 1095 0 1095 -3700 0
-3700 0 0 -900z m7370 0 l0 -870 -3670 0 -3670 0 0 870 0 870 3670 0 3670 0 0
-870z m-5240 -997 l0 -97 -51 49 c-28 28 -69 71 -91 98 l-40 47 91 0 91 0 0
-97z m400 88 c0 -5 -66 -44 -147 -87 -82 -42 -163 -85 -181 -96 -18 -10 -35
-18 -37 -18 -8 0 -6 196 2 203 10 11 363 8 363 -2z"/>
<path d="M5830 5893 c-35 -13 -50 -37 -50 -78 0 -58 25 -79 85 -73 43 5 45 4
39 -16 -7 -23 -31 -46 -49 -46 -6 0 -20 7 -31 15 -25 19 -44 19 -44 0 0 -30
79 -47 119 -25 20 10 51 78 51 110 0 37 -31 97 -56 109 -27 12 -40 13 -64 4z
m64 -45 c20 -29 20 -47 -1 -70 -31 -34 -83 -12 -83 37 0 51 56 73 84 33z"/>
<path d="M3113 5144 c-16 -25 -16 -29 -1 -55 15 -26 15 -29 -3 -45 -45 -41 -6
-104 64 -104 23 0 53 7 65 16 27 18 29 65 5 89 -13 14 -14 21 -5 36 30 48 -1
89 -66 89 -34 0 -45 -5 -59 -26z m97 -13 c13 -25 4 -48 -21 -56 -38 -12 -65
35 -37 63 18 18 46 14 58 -7z m5 -97 c10 -10 13 -24 9 -38 -17 -54 -94 -47
-94 9 0 43 53 61 85 29z"/>
<path d="M8103 5153 c-13 -8 -23 -22 -23 -29 0 -18 9 -18 32 3 17 15 18 13 18
-75 0 -91 0 -92 -25 -92 -14 0 -25 -4 -25 -10 0 -6 32 -10 75 -10 43 0 75 4
75 10 0 6 -13 10 -30 10 l-30 0 0 105 c0 102 -1 105 -22 104 -13 0 -33 -7 -45
-16z"/>
<path d="M8293 5153 c-13 -8 -23 -22 -23 -29 0 -18 9 -18 32 2 25 23 30 6 26
-87 -3 -72 -4 -74 -30 -77 -58 -7 -25 -22 47 -22 43 0 75 4 75 10 0 6 -13 10
-30 10 l-30 0 0 105 c0 102 -1 105 -22 104 -13 0 -33 -7 -45 -16z"/>
<path d="M647 5232 c-26 -43 -47 -83 -47 -90 0 -8 18 -12 50 -12 49 0 50 -1
50 -30 0 -20 5 -30 15 -30 9 0 15 10 15 26 0 17 6 28 20 31 11 3 20 9 20 13 0
4 -9 10 -20 13 -18 5 -20 14 -20 81 0 104 -19 103 -83 -2z m53 -32 l0 -50 -35
0 -35 0 28 50 c15 27 30 50 35 50 4 0 7 -22 7 -50z"/>
<path d="M1045 4751 c-99 -26 -193 -104 -241 -199 -26 -51 -29 -67 -29 -152 0
-88 3 -101 33 -162 36 -74 95 -132 170 -169 40 -20 63 -24 147 -24 90 0 106 3
158 28 68 34 137 101 167 161 114 237 -46 511 -305 522 -38 2 -83 0 -100 -5z
m130 -182 c73 -20 135 -100 135 -173 0 -147 -186 -230 -297 -133 -63 56 -80
134 -44 212 22 49 48 73 98 91 47 16 58 17 108 3z"/>
<path d="M7697 4750 c-98 -25 -191 -100 -240 -195 -29 -55 -32 -68 -32 -155 0
-82 4 -103 26 -150 60 -126 172 -202 306 -209 91 -4 147 11 223 60 100 64 151
162 153 289 2 111 -21 176 -88 248 -90 97 -228 142 -348 112z m128 -181 c107
-27 165 -152 115 -249 -69 -136 -259 -133 -321 5 -45 99 5 214 109 245 38 12
47 11 97 -1z"/>
<path d="M8545 4747 c-117 -39 -199 -112 -239 -213 -79 -196 26 -419 225 -479
198 -60 404 55 455 255 56 218 -103 433 -330 446 -43 2 -87 -1 -111 -9z m147
-179 c56 -17 115 -86 124 -145 14 -97 -59 -191 -155 -201 -66 -6 -93 2 -137
40 -106 93 -77 257 53 303 48 18 66 18 115 3z"/>
<path d="M4563 4550 c-45 -27 -46 -53 -2 -30 18 10 19 7 19 -80 0 -83 -2 -91
-18 -88 -11 2 -20 -1 -20 -7 -1 -6 25 -10 63 -10 37 0 65 4 65 10 -1 6 -12 9
-25 7 l-25 -3 0 110 c0 122 -2 125 -57 91z"/>
<path d="M4743 4558 c-58 -28 -56 -199 2 -222 61 -23 115 17 122 90 10 104
-50 168 -124 132z m67 -28 c15 -15 20 -33 20 -78 0 -68 -15 -95 -50 -90 -50 7
-68 112 -29 162 25 31 33 32 59 6z"/>
<path d="M340 4033 c0 -40 30 -115 58 -146 9 -11 35 -29 57 -41 40 -21 46 -21
820 -26 850 -5 807 -2 862 -62 27 -29 53 -89 53 -123 0 -33 28 -33 35 0 3 14
8 37 11 53 8 40 47 87 91 108 36 18 79 19 813 24 l775 5 46 28 c54 32 97 89
110 144 12 54 11 73 -5 73 -9 0 -16 -16 -20 -43 -12 -77 -64 -141 -135 -165
-25 -9 -238 -12 -771 -12 -635 0 -744 -2 -788 -15 -59 -18 -119 -65 -128 -101
-6 -23 -24 -34 -24 -14 0 20 -67 84 -110 104 -44 21 -61 21 -821 26 l-775 5
-42 27 c-48 32 -71 72 -81 136 -8 58 -31 69 -31 15z"/>
<path d="M2173 3496 c-15 -13 -25 -28 -20 -32 4 -4 13 -2 19 4 30 30 38 13 38
-73 l0 -85 -30 0 c-20 0 -30 -5 -30 -15 0 -12 14 -15 70 -15 56 0 70 3 70 15
0 9 -9 15 -25 15 l-25 0 0 105 c0 97 -1 105 -19 105 -11 0 -33 -11 -48 -24z"/>
<path d="M5910 3230 c-11 -11 -20 -24 -20 -30 0 -17 25 -11 43 10 19 23 47 26
65 8 24 -24 12 -54 -48 -112 -33 -33 -60 -65 -60 -73 0 -10 20 -13 81 -13 51
0 78 4 74 10 -3 6 -31 10 -61 10 -30 0 -54 3 -54 8 0 4 25 29 55 55 46 40 55
54 55 81 0 19 -8 40 -18 49 -26 24 -87 22 -112 -3z"/>
<path d="M5967 2923 c-4 -3 -7 -17 -7 -30 0 -49 -50 -121 -105 -151 -27 -16
-172 -17 -1720 -22 l-1691 -5 -49 -26 c-62 -32 -106 -97 -113 -169 -4 -41 -2
-50 12 -50 11 0 16 9 16 28 0 77 56 157 129 181 25 8 484 11 1691 11 1842 0
1723 -4 1791 67 20 21 41 47 46 57 10 18 11 18 23 -5 7 -13 26 -39 43 -57 63
-66 -40 -62 1782 -62 1486 0 1656 -2 1698 -16 63 -21 112 -79 128 -151 13 -58
36 -68 31 -12 -8 86 -85 177 -167 198 -31 8 -526 11 -1702 11 -1587 0 -1660 1
-1698 19 -66 29 -115 104 -115 174 0 17 -11 22 -23 10z"/>
<path d="M646 2425 c-4 -11 -22 -15 -76 -15 -126 0 -200 -55 -220 -162 -7 -35
-10 -288 -8 -689 l3 -634 24 -42 c14 -24 43 -55 65 -70 35 -23 54 -28 129 -31
65 -3 87 -8 87 -18 0 -21 945 -21 957 1 6 10 33 15 103 17 l95 3 3 38 3 37
232 -2 232 -3 3 -37 3 -38 3700 0 3699 0 -2 817 -3 818 -3565 1 c-1961 1
-3624 -1 -3697 -4 l-132 -5 -3 -36 -3 -36 -232 -3 -232 -2 -3 37 -3 38 -97 3
c-78 2 -98 6 -98 17 0 23 -955 22 -964 0z m935 -55 c1 -27 1 -77 1 -110 0
-115 26 -102 -204 -98 -155 2 -202 0 -205 -9 -5 -14 18 -15 295 -13 l142 1 0
-71 0 -70 85 0 85 0 -2 -402 -3 -403 -82 -3 -82 -3 -3 -67 -3 -67 -218 0
c-165 0 -217 -3 -217 -12 0 -10 51 -13 207 -15 l207 -3 1 -123 0 -122 -457 0
-458 0 0 125 0 125 208 2 c114 2 206 7 205 11 -2 4 -100 9 -218 10 l-215 2 0
-122 0 -123 -84 0 c-70 0 -88 4 -116 23 -44 29 -69 65 -80 113 -12 48 -12
1243 -1 1301 18 91 81 133 201 133 l80 0 0 -120 0 -120 133 0 c72 -1 169 -2
215 -3 68 -2 82 1 82 13 0 14 -25 15 -205 12 l-205 -4 0 131 0 131 455 0 455
0 1 -50z m199 -15 c0 -25 -1 -25 -85 -25 -84 0 -85 0 -85 25 0 25 1 25 85 25
84 0 85 0 85 -25z m7870 -760 l0 -785 -3670 0 -3670 0 0 24 c0 13 7 26 15 30
12 4 15 32 15 166 0 136 -2 160 -15 160 -8 0 -15 8 -15 18 0 16 15 17 205 14
179 -2 205 -1 205 13 0 13 -52 15 -455 15 l-455 0 -1 163 c-2 310 2 522 10
530 4 4 209 6 454 5 352 -2 447 0 447 10 0 9 -48 12 -205 12 -169 0 -205 2
-205 14 0 8 7 16 15 20 12 4 15 32 15 161 0 129 -3 157 -15 161 -8 4 -15 17
-15 30 l0 24 3670 0 3670 0 0 -785z m-7347 678 c3 -16 5 -75 4 -133 l-2 -105
-326 -3 -326 -2 -6 67 c-3 38 -3 98 0 136 l6 67 322 0 323 0 5 -27z m-25 -290
c3 -10 -48 -13 -232 -13 -204 0 -236 2 -236 15 0 13 30 15 232 13 174 -2 232
-6 236 -15z m-3 -774 c0 -12 -42 -14 -232 -17 -190 -2 -233 0 -233 11 0 8 2
16 4 18 2 2 107 4 233 3 188 -1 228 -4 228 -15z m-369 -66 c-1 -15 8 -18 62
-18 34 0 62 -2 62 -4 0 -3 -11 -21 -25 -41 -28 -40 -68 -148 -59 -161 13 -21
33 -7 40 29 7 41 47 127 71 154 9 10 13 26 10 38 -5 20 -2 21 116 18 l122 -3
0 -130 0 -130 -328 0 -328 0 -1 80 c-1 44 -1 104 0 133 l2 52 129 0 c117 0
129 -2 127 -17z m-128 -308 c-2 -14 -6 -25 -10 -25 -5 0 -42 0 -83 0 -73 0
-75 1 -75 25 0 25 1 25 86 25 l85 0 -3 -25z"/>
<path d="M940 2362 c-121 -2 -137 -5 -157 -24 -34 -32 -32 -99 3 -127 26 -20
38 -21 346 -21 l319 0 24 25 c17 16 25 35 25 60 0 25 -8 44 -25 60 -23 24 -29
25 -162 26 -76 0 -160 1 -188 2 -27 1 -111 1 -185 -1z m-72 -61 c3 -8 0 -11
-7 -7 -8 5 -9 -3 -5 -28 5 -33 3 -36 -18 -36 -43 0 -65 49 -36 78 16 16 60 11
66 -7z m590 7 c7 -7 12 -21 12 -33 0 -30 -19 -45 -58 -45 -36 0 -36 19 1 21
20 1 20 2 -3 9 l-25 8 25 2 c18 2 20 4 8 7 -21 5 -24 23 -5 24 6 0 3 4 -8 9
-17 7 -16 9 11 9 16 1 35 -4 42 -11z"/>
<path d="M867 1813 c-13 -21 -36 -57 -50 -80 -15 -24 -27 -47 -27 -53 0 -5 23
-10 50 -10 49 0 50 -1 50 -30 0 -19 5 -30 14 -30 7 0 16 14 20 30 3 18 12 30
21 30 22 0 18 17 -6 23 -19 5 -20 12 -17 76 2 52 -1 72 -10 76 -20 8 -20 8
-45 -32z m23 -73 c0 -49 -1 -50 -30 -50 -16 0 -30 4 -30 9 0 9 51 91 57 91 2
0 3 -22 3 -50z"/>
<path d="M1323 1844 c-9 -4 -13 -27 -13 -65 l0 -60 45 7 c51 7 75 -5 75 -41 0
-25 -29 -55 -52 -55 -8 0 -23 9 -33 20 -21 23 -45 26 -45 6 0 -37 77 -59 123
-35 29 16 37 28 37 64 0 17 -4 35 -8 41 -14 21 -55 36 -84 30 -28 -5 -29 -4
-26 27 3 31 4 32 56 35 72 4 65 26 -9 29 -30 1 -60 -1 -66 -3z"/>
<path d="M450 1520 c-11 -11 -20 -24 -20 -30 0 -18 35 -11 48 10 16 25 44 26
66 1 22 -24 14 -39 -33 -59 l-36 -15 32 -7 c59 -13 78 -43 47 -74 -22 -22 -61
-20 -76 4 -13 21 -48 28 -48 10 0 -26 41 -50 85 -50 74 0 115 68 63 104 -20
15 -21 16 -5 34 38 41 3 92 -63 92 -27 0 -47 -7 -60 -20z"/>
<path d="M943 1000 c-166 -6 -183 -13 -183 -80 0 -30 7 -47 25 -65 l24 -25
321 0 321 0 25 25 c20 20 25 33 22 67 -5 70 -22 76 -233 80 -99 1 -244 1 -322
-2z m-88 -60 c3 -11 3 -25 0 -30 -4 -6 -1 -17 5 -25 10 -13 8 -15 -17 -15 -34
0 -53 16 -53 45 0 43 53 63 65 25z m608 -2 c18 -28 -7 -68 -43 -68 -16 0 -30
5 -30 11 0 6 7 9 15 5 18 -6 20 10 3 20 -8 5 -6 10 8 15 16 6 16 8 2 8 -11 1
-15 6 -11 17 7 19 42 15 56 -8z"/>
<path d="M831 924 c0 -11 3 -14 6 -6 3 7 2 16 -1 19 -3 4 -6 -2 -5 -13z"/>
<path d="M2415 2335 c-31 -30 -33 -83 -6 -116 l19 -24 326 -3 327 -3 29 30
c17 16 30 39 30 51 0 29 -26 76 -45 84 -9 3 -160 6 -336 6 l-320 0 -24 -25z
m78 -35 c-3 -10 -9 -18 -13 -17 -4 1 -7 -2 -7 -8 1 -5 7 -9 13 -7 8 1 10 -5 7
-18 -11 -40 -73 -19 -73 25 0 29 19 45 51 45 22 0 26 -4 22 -20z m605 -13 c4
-37 -13 -57 -49 -54 -22 1 -28 6 -23 17 3 8 7 20 8 25 1 6 5 15 9 22 4 7 0 14
-10 16 -10 3 0 5 22 4 36 -2 40 -5 43 -30z"/>
<path d="M3055 2269 c-4 -6 -5 -12 -2 -15 2 -3 7 2 10 11 7 17 1 20 -8 4z"/>
<path d="M3275 2335 c-17 -16 -25 -35 -25 -60 0 -25 8 -44 25 -60 l24 -25 321
0 322 0 29 29 c31 31 36 55 18 94 -20 44 -42 47 -375 47 l-315 0 -24 -25z m69
-30 c-17 -13 -17 -14 -2 -15 11 0 16 -6 13 -20 -6 -30 -14 -40 -35 -40 -27 0
-42 33 -30 64 7 21 16 26 42 26 30 0 31 -1 12 -15z m608 -2 c10 -9 18 -21 18
-26 0 -22 -34 -47 -64 -47 -23 0 -27 3 -18 12 7 7 8 17 2 28 -7 14 -5 19 13
25 22 7 22 7 -3 15 -25 8 -25 8 4 9 16 1 38 -6 48 -16z"/>
<path d="M7436 2339 c-21 -16 -26 -29 -26 -64 0 -35 5 -48 27 -65 26 -20 34
-21 351 -18 l324 3 19 24 c29 36 25 94 -7 120 -26 20 -38 21 -344 21 -306 0
-318 -1 -344 -21z m68 -45 c-6 -22 -4 -25 7 -19 12 8 12 6 1 -8 -8 -9 -11 -21
-7 -27 9 -14 -38 -13 -53 2 -29 29 -7 78 35 78 20 0 22 -4 17 -26z m555 14
c11 -10 13 -10 7 0 -9 16 26 16 42 0 16 -16 15 -53 0 -65 -7 -6 -28 -11 -47
-11 l-35 -1 30 26 c27 24 27 25 5 18 -17 -5 -21 -4 -16 4 4 7 1 18 -5 26 -15
18 1 20 19 3z"/>
<path d="M8294 2336 c-21 -18 -28 -32 -28 -61 0 -29 7 -43 28 -61 l27 -24 320
0 320 0 24 25 c17 16 25 35 25 60 0 25 -8 44 -25 60 l-24 25 -320 0 -320 0
-27 -24z m68 -45 c-2 -16 1 -32 7 -35 21 -13 11 -23 -20 -22 -38 1 -54 23 -45
59 5 21 12 27 34 27 26 0 28 -3 24 -29z m606 17 c7 -7 12 -21 12 -33 0 -12 -5
-26 -12 -33 -14 -14 -68 -16 -68 -2 0 6 6 10 14 10 8 0 17 7 20 16 5 13 3 14
-7 6 -10 -8 -13 -6 -14 9 -1 10 4 19 10 20 7 1 1 5 -13 9 -23 7 -22 8 11 9 19
1 40 -4 47 -11z"/>
<path d="M4359 2213 c-1 -5 -1 -16 0 -25 2 -19 -6 -21 -101 -21 -38 0 -48 -3
-48 -16 0 -13 9 -15 50 -13 72 5 97 -3 96 -30 -1 -18 5 -24 27 -26 l27 -3 0
-484 0 -484 -27 -3 c-22 -2 -28 -8 -26 -25 3 -22 0 -23 -72 -23 -40 0 -76 -4
-79 -8 -11 -19 13 -27 79 -27 55 0 70 -3 71 -15 1 -8 2 -21 3 -27 1 -9 22 -13
71 -13 l70 0 0 30 0 30 201 0 c156 0 200 3 197 13 -4 9 -55 13 -201 15 -193 2
-196 3 -199 24 -2 14 -12 24 -28 28 l-25 6 -3 481 -2 482 27 3 c22 2 29 9 31
31 l3 27 200 0 c156 0 200 3 196 13 -3 9 -52 12 -200 12 l-197 0 0 28 c0 27 0
27 -70 27 -38 0 -71 -3 -71 -7z"/>
<path d="M2575 2162 c-127 -2 -141 -5 -162 -24 -29 -27 -30 -77 -4 -109 18
-23 26 -24 178 -29 87 -3 236 -4 331 -1 194 4 208 9 218 72 5 28 1 41 -17 61
-24 26 -24 26 -214 30 -104 1 -253 2 -330 0z m-87 -44 c-16 -13 -22 -29 -19
-56 0 -7 4 -11 9 -9 4 3 16 1 27 -4 15 -6 10 -8 -20 -8 -23 -1 -46 4 -53 11
-29 29 -1 78 46 78 23 0 24 -2 10 -12z m596 -1 c12 -9 17 -23 14 -42 -3 -28
-6 -30 -53 -32 -37 -2 -44 0 -29 6 17 8 21 17 19 45 -3 29 0 36 14 36 9 0 25
-6 35 -13z m-587 -43 c-3 -3 -12 -4 -19 -1 -8 3 -5 6 6 6 11 1 17 -2 13 -5z"/>
<path d="M3050 2081 c0 -6 4 -13 10 -16 6 -3 7 1 4 9 -7 18 -14 21 -14 7z"/>
<path d="M3417 2160 c-122 -4 -140 -7 -153 -24 -20 -28 -17 -80 5 -107 18 -23
26 -24 178 -29 87 -3 236 -4 331 -1 202 4 217 10 217 80 0 75 -10 78 -240 83
-110 2 -262 1 -338 -2z m-64 -37 c-13 -2 -23 -9 -23 -15 0 -5 6 -8 13 -5 8 3
13 -3 13 -14 0 -22 -7 -24 -23 -8 -9 9 -10 6 -6 -10 3 -12 11 -20 18 -17 6 2
18 0 26 -5 9 -7 0 -9 -30 -7 -53 4 -71 24 -53 62 10 22 18 26 49 25 23 -1 29
-3 16 -6z m581 1 c27 -10 38 -41 24 -64 -10 -16 -22 -20 -58 -19 -27 1 -35 4
-19 6 17 3 29 12 33 26 9 34 8 37 -16 47 l-23 9 22 0 c12 1 29 -2 37 -5z m-24
-30 c0 -8 -5 -12 -10 -9 -6 4 -8 11 -5 16 9 14 15 11 15 -7z"/>
<path d="M7590 2163 c-168 -4 -180 -10 -180 -79 0 -32 6 -49 22 -64 20 -18 36
-20 162 -22 78 -1 222 0 321 1 153 2 184 5 205 20 34 25 40 91 11 120 -19 19
-33 21 -134 21 -63 0 -147 2 -188 3 -41 2 -139 2 -219 0z m-70 -41 c-23 -11
-20 -66 5 -74 13 -4 3 -6 -26 -7 -34 -1 -49 3 -53 15 -18 46 4 74 59 73 19 0
24 -3 15 -7z m588 -4 c7 -7 12 -21 12 -33 0 -33 -20 -45 -69 -43 -36 1 -39 2
-14 5 17 2 34 11 37 20 5 13 4 14 -9 3 -9 -7 -18 -10 -22 -6 -3 3 -1 6 6 6 8
0 10 7 6 20 -5 16 -3 19 12 14 10 -3 7 2 -7 10 l-25 15 31 1 c16 0 35 -5 42
-12z"/>
<path d="M8451 2163 c-151 -4 -166 -8 -182 -52 -12 -31 6 -88 32 -102 13 -7
134 -10 341 -10 318 0 320 0 344 22 31 29 33 90 4 119 -18 18 -33 20 -133 20
-63 0 -147 2 -188 3 -41 2 -139 2 -218 0z m-81 -44 c0 -5 -3 -8 -7 -6 -5 3 -8
-9 -8 -25 0 -22 6 -33 20 -39 15 -6 9 -8 -21 -8 -29 -1 -44 4 -48 15 -9 25 -7
49 6 62 15 15 58 16 58 1z m594 -5 c37 -36 12 -74 -48 -73 -31 0 -36 2 -21 8
11 5 23 7 27 4 5 -2 3 8 -2 22 -13 33 -13 38 0 30 6 -3 10 -4 10 0 0 3 -10 10
-22 15 -21 8 -20 9 9 9 17 1 39 -6 47 -15z"/>
<path d="M2805 1960 c-4 -7 119 -10 362 -10 202 0 378 -3 391 -6 16 -5 22 -2
22 10 0 14 -37 16 -384 16 -246 0 -387 -4 -391 -10z"/>
<path d="M3670 1960 c0 -6 74 -11 188 -12 l187 -3 3 -347 2 -348 -190 -2
c-118 -2 -190 -7 -190 -13 0 -6 74 -10 203 -10 l202 0 3 373 2 372 -205 0
c-127 0 -205 -4 -205 -10z"/>
<path d="M4553 1713 c-13 -8 -23 -22 -23 -29 0 -18 9 -18 32 3 17 15 18 13 18
-75 l0 -92 -26 0 c-14 0 -24 -5 -22 -11 5 -15 141 -16 146 -1 2 8 -8 12 -27
12 l-31 0 0 105 c0 102 -1 105 -22 104 -13 0 -33 -7 -45 -16z"/>
<path d="M4724 1709 c-15 -17 -19 -36 -19 -94 0 -89 17 -115 76 -115 40 0 65
18 80 57 20 54 3 145 -31 163 -32 17 -85 12 -106 -11z m85 -8 c23 -15 27 -125
7 -156 -50 -76 -111 35 -72 130 15 35 37 44 65 26z"/>
<path d="M8103 1713 c-13 -8 -23 -22 -23 -29 0 -18 9 -18 32 3 17 15 18 13 18
-75 l0 -92 -26 0 c-14 0 -24 -5 -22 -11 5 -15 141 -16 146 -1 2 8 -8 12 -27
12 l-31 0 0 105 c0 102 -1 105 -22 104 -13 0 -33 -7 -45 -16z"/>
<path d="M8293 1713 c-13 -8 -23 -22 -23 -29 0 -18 9 -18 32 2 25 23 30 6 26
-87 -3 -72 -4 -74 -30 -77 -51 -6 -29 -22 32 -23 33 -1 65 -2 72 -3 6 -1 13 5
16 12 2 8 -7 12 -27 12 l-31 0 0 105 c0 102 -1 105 -22 104 -13 0 -33 -7 -45
-16z"/>
<path d="M5802 1694 c-19 -13 -23 -23 -20 -61 2 -37 9 -50 31 -67 24 -18 31
-19 59 -8 39 14 45 10 30 -23 -15 -33 -57 -43 -83 -19 -15 13 -22 15 -31 6
-20 -20 16 -47 61 -47 49 0 75 23 91 79 23 83 -14 156 -79 156 -20 0 -47 -7
-59 -16z m78 -14 c46 -24 26 -100 -26 -100 -43 0 -57 57 -24 90 23 23 25 23
50 10z"/>
<path d="M2805 1240 c-3 -6 0 -12 7 -15 7 -3 181 -4 387 -3 289 2 375 6 379
16 5 16 -763 18 -773 2z"/>
<path d="M2580 1192 c-132 -2 -146 -4 -167 -24 -32 -30 -31 -87 1 -117 24 -22
26 -22 345 -22 360 -1 364 0 377 66 7 42 -14 82 -49 89 -31 7 -336 12 -507 8z
m-90 -53 c-21 -6 -22 -7 -5 -9 17 -2 16 -3 -5 -10 -17 -5 -19 -8 -7 -9 20 -1
23 -17 5 -24 -7 -3 -2 -6 12 -7 24 -2 24 -2 -5 -11 -22 -6 -33 -4 -47 8 -39
35 -11 83 44 75 32 -5 32 -6 8 -13z m610 -30 c0 -23 -6 -32 -27 -40 -19 -7
-29 -7 -31 0 -2 6 -9 8 -14 5 -6 -4 -8 -3 -5 3 13 21 15 63 4 64 -7 1 2 5 18
8 38 9 55 -3 55 -40z"/>
<path d="M3432 1190 c-137 -4 -155 -7 -168 -24 -23 -32 -18 -89 10 -115 24
-22 26 -22 345 -22 360 -1 364 0 377 66 7 42 -14 82 -49 89 -37 8 -353 11
-515 6z m-79 -48 c-12 -2 -24 -11 -28 -20 -5 -14 -4 -15 6 -4 18 17 25 15 26
-7 1 -14 -3 -18 -14 -14 -11 4 -14 2 -9 -5 4 -7 15 -12 24 -13 13 0 12 -2 -5
-9 -32 -13 -60 -1 -68 27 -9 37 16 61 57 54 25 -4 28 -6 11 -9z m607 -7 c13
-16 6 -47 -14 -64 -10 -8 -21 -8 -42 0 -23 10 -25 13 -11 16 14 4 16 8 6 19
-6 8 -9 18 -5 21 4 4 11 1 16 -7 7 -11 10 -11 10 -2 0 7 -10 17 -22 22 -20 8
-19 9 13 9 20 1 42 -5 49 -14z"/>
<path d="M7592 1191 c-172 -7 -182 -11 -182 -81 0 -71 9 -74 187 -80 87 -3
238 -4 336 -1 165 3 180 5 198 24 27 29 25 90 -3 117 -19 18 -35 20 -143 20
-67 0 -149 2 -181 4 -32 2 -128 0 -212 -3z m-75 -52 c-12 -7 -14 -16 -7 -39 5
-17 5 -28 0 -25 -5 3 -11 1 -15 -5 -15 -24 -55 8 -55 44 0 32 15 43 56 38 28
-3 33 -7 21 -13z m603 -24 c0 -24 -23 -55 -41 -55 -5 0 -9 4 -9 10 0 5 -7 7
-15 4 -8 -4 -15 -1 -15 5 0 7 10 16 23 21 22 9 22 9 -3 10 l-25 2 25 8 25 7
-30 9 -30 8 30 6 c40 8 65 -5 65 -35z"/>
<path d="M8449 1191 c-95 -4 -151 -10 -161 -19 -37 -31 -25 -120 19 -136 10
-4 161 -7 337 -7 316 0 318 0 342 22 31 29 33 90 4 119 -18 18 -33 20 -142 20
-68 0 -152 2 -188 4 -36 2 -131 0 -211 -3z m-83 -48 c-15 -4 -16 -7 -5 -14 12
-7 12 -9 -1 -9 -13 0 -13 -1 0 -10 13 -9 13 -11 0 -20 -13 -8 -12 -10 5 -10
18 -1 18 -2 -3 -11 -34 -13 -62 5 -62 40 0 36 6 41 49 40 20 -1 28 -3 17 -6z
m609 -13 c13 -40 -15 -77 -49 -64 -8 3 -11 15 -8 29 2 14 9 22 16 19 6 -3 0 4
-13 15 l-23 21 35 0 c27 0 37 -5 42 -20z"/>
<path d="M2577 1001 c-141 -6 -150 -7 -168 -30 -24 -30 -24 -82 0 -112 l19
-24 326 -3 327 -3 31 31 c26 27 30 36 25 68 -11 64 -31 72 -181 72 -72 0 -153
2 -181 4 -27 2 -117 0 -198 -3z m-82 -51 c-4 -6 -11 -8 -16 -5 -5 4 -9 1 -9
-4 0 -6 6 -11 14 -11 9 0 12 -7 9 -20 -3 -11 -9 -17 -14 -14 -5 3 -9 1 -9 -5
0 -5 10 -12 23 -14 12 -3 4 -4 -18 -4 -33 2 -41 6 -49 29 -7 19 -6 31 4 42 14
18 75 23 65 6z m603 -23 c4 -37 -13 -57 -52 -57 -22 0 -27 3 -17 9 8 5 12 18
8 31 -9 34 2 51 32 48 20 -2 27 -9 29 -31z"/>
<path d="M3442 1000 c-147 -5 -155 -6 -173 -29 -24 -30 -24 -82 0 -112 l19
-24 326 -3 327 -3 29 30 c17 16 30 39 30 51 0 34 -28 79 -53 84 -36 8 -340 11
-505 6z m-82 -50 c0 -5 -6 -7 -14 -4 -8 3 -16 -4 -19 -17 -4 -16 -3 -19 6 -10
16 16 23 14 24 -8 1 -14 -3 -18 -13 -14 -23 9 -16 -7 9 -17 18 -8 15 -9 -18
-7 -33 2 -41 6 -49 29 -7 19 -6 31 4 42 14 17 70 22 70 6z m595 -10 c17 -18
17 -21 1 -45 -10 -16 -26 -25 -41 -25 -14 0 -25 2 -25 4 0 2 -3 12 -7 22 -5
12 -3 15 6 9 18 -11 32 15 20 37 -14 26 22 24 46 -2z m-50 -10 c3 -5 2 -10 -4
-10 -5 0 -13 5 -16 10 -3 6 -2 10 4 10 5 0 13 -4 16 -10z"/>
<path d="M7603 1000 c-177 -6 -193 -12 -193 -80 0 -30 7 -47 25 -65 l24 -25
319 0 c310 0 320 1 346 21 23 18 27 27 24 67 -5 74 -21 80 -223 84 -93 1 -238
1 -322 -2z m-102 -47 c1 -5 3 -25 4 -45 2 -33 -1 -38 -19 -38 -28 0 -46 18
-46 45 0 12 5 26 12 33 13 13 47 16 49 5z m607 -5 c7 -7 12 -21 12 -33 0 -12
-5 -26 -12 -33 -15 -15 -68 -16 -68 -1 0 6 7 9 15 5 18 -7 20 5 3 23 -11 11
-10 13 4 8 15 -5 16 -2 8 18 -8 21 -6 25 8 25 10 0 23 -5 30 -12z"/>
<path d="M7481 924 c0 -11 3 -14 6 -6 3 7 2 16 -1 19 -3 4 -6 -2 -5 -13z"/>
<path d="M8470 1003 c-170 -4 -178 -5 -196 -48 -18 -43 -10 -79 23 -105 24
-19 42 -20 345 -20 l319 0 25 25 c20 20 25 33 22 67 -5 69 -23 76 -228 80 -96
1 -236 2 -310 1z m-109 -50 c0 -5 2 -16 4 -26 2 -11 -1 -15 -8 -10 -7 4 -4 -5
6 -21 l18 -27 -32 3 c-38 4 -54 25 -45 61 5 20 13 27 31 27 14 0 25 -3 26 -7z
m610 -14 c17 -32 -3 -69 -37 -69 -27 0 -28 6 -8 54 5 14 4 17 -4 12 -7 -4 -12
-1 -12 8 0 24 47 20 61 -5z"/>
<path d="M1907 2283 c-17 -17 -2 -23 58 -23 36 0 65 -2 65 -5 0 -2 -13 -25
-30 -51 -16 -26 -37 -69 -46 -97 -14 -41 -14 -51 -3 -58 20 -12 29 -11 29 4 0
32 32 117 61 160 44 66 36 77 -54 77 -41 0 -77 -3 -80 -7z"/>
<path d="M340 682 c0 -51 30 -118 70 -157 67 -65 56 -64 879 -65 416 0 751 -4
769 -9 72 -21 131 -94 132 -163 0 -61 31 -37 44 34 8 43 45 91 90 116 28 16
99 17 806 22 l775 5 41 22 c56 30 109 94 123 148 15 59 14 75 -4 75 -8 0 -15
-8 -15 -18 0 -39 -32 -110 -63 -140 -66 -64 -44 -62 -861 -62 -450 0 -754 -4
-775 -10 -49 -14 -98 -50 -118 -87 -10 -18 -21 -33 -24 -33 -4 0 -17 16 -29
35 -12 19 -43 48 -68 63 l-47 27 -775 5 -775 5 -45 22 c-57 29 -92 79 -98 143
-3 33 -9 50 -18 50 -9 0 -14 -11 -14 -28z"/>
<path d="M2173 146 c-15 -13 -25 -28 -20 -32 4 -4 13 -2 19 4 28 28 38 13 38
-53 0 -51 3 -65 15 -65 12 0 15 16 15 85 0 78 -2 85 -19 85 -11 0 -33 -11 -48
-24z"/>
</g>
</svg>
